<svg width="65" height="46" viewBox="0 0 65 46" fill="none" xmlns="http://www.w3.org/2000/svg">
<g clip-path="url(#clip0_1078_3587)">
<path d="M26.6834 5.01854C28.7514 2.8103 31.6304 1.44069 34.8145 1.44069C39.0473 1.44069 42.7402 3.85956 44.7068 7.45043C46.4158 6.66791 48.3075 6.23257 50.2977 6.23257C57.9319 6.23257 64.1212 12.6309 64.1212 20.5231C64.1212 28.4162 57.9319 34.8145 50.2977 34.8145C49.3833 34.8151 48.4712 34.7219 47.5749 34.5365C45.8431 37.7023 42.5429 39.8414 38.755 39.8414C37.1693 39.8414 35.6695 39.466 34.3341 38.7986C32.5785 43.0307 28.4883 45.9981 23.7212 45.9981C18.7568 45.9981 14.5259 42.7789 12.9019 38.264C12.1922 38.4185 11.4569 38.499 10.7024 38.499C4.79176 38.4991 0 33.5377 0 27.4166C0 23.3146 2.15291 19.733 5.35165 17.8168C4.69311 16.2639 4.3268 14.5499 4.3268 12.7478C4.3268 5.70837 9.90317 0.00195312 16.7811 0.00195312C20.8193 0.00195312 24.4081 1.96963 26.6834 5.01854Z" fill="#00A1E0"/>
<path d="M9.28792 23.8541C9.24774 23.9618 9.30256 23.9843 9.31533 24.003C9.43587 24.0929 9.55833 24.1575 9.68164 24.2295C10.3356 24.5852 10.9531 24.6891 11.5989 24.6891C12.9142 24.6891 13.7308 23.9721 13.7308 22.8178V22.7954C13.7308 21.7282 12.8092 21.3407 11.9442 21.0608L11.8318 21.0234C11.1797 20.8062 10.617 20.619 10.617 20.179V20.1557C10.617 19.7793 10.9458 19.5022 11.4555 19.5022C12.0218 19.5022 12.6941 19.6951 13.127 19.9403C13.127 19.9403 13.254 20.0246 13.3006 19.8982C13.3261 19.8308 13.5454 19.2261 13.5683 19.1605C13.5929 19.0894 13.5491 19.0369 13.5043 19.0088C13.0102 18.7009 12.3269 18.4902 11.62 18.4902L11.4885 18.4912C10.2846 18.4912 9.44428 19.2363 9.44428 20.3044V20.3269C9.44428 21.453 10.3714 21.818 11.2401 22.0727L11.3798 22.1167C12.0128 22.3161 12.5581 22.4874 12.5581 22.9442V22.9667C12.5581 23.3842 12.2037 23.695 11.6319 23.695C11.41 23.695 10.7021 23.6903 9.93754 23.195C9.84524 23.1398 9.79139 23.0996 9.72015 23.0556C9.68273 23.0312 9.58863 22.9891 9.54755 23.1164L9.28792 23.8541ZM28.5434 23.8541C28.5032 23.9618 28.558 23.9843 28.5708 24.003C28.6914 24.0929 28.8138 24.1575 28.9371 24.2295C29.591 24.5852 30.2086 24.6891 30.8543 24.6891C32.1696 24.6891 32.9863 23.9721 32.9863 22.8178V22.7954C32.9863 21.7282 32.0646 21.3407 31.1996 21.0608L31.0873 21.0234C30.4351 20.8062 29.8724 20.619 29.8724 20.179V20.1557C29.8724 19.7793 30.2012 19.5022 30.7109 19.5022C31.2772 19.5022 31.9495 19.6951 32.3825 19.9403C32.3825 19.9403 32.5094 20.0246 32.556 19.8982C32.5815 19.8308 32.8008 19.2261 32.8236 19.1605C32.8483 19.0894 32.8044 19.0369 32.7597 19.0088C32.2655 18.7009 31.5823 18.4902 30.8753 18.4902L30.7438 18.4912C29.5399 18.4912 28.6996 19.2363 28.6996 20.3044V20.3269C28.6996 21.453 29.6267 21.818 30.4954 22.0727L30.6351 22.1167C31.2681 22.3161 31.8144 22.4874 31.8144 22.9442V22.9667C31.8144 23.3842 31.459 23.695 30.8872 23.695C30.6653 23.695 29.9574 23.6903 29.1929 23.195C29.1006 23.1398 29.0459 23.1014 28.9765 23.0556C28.9527 23.0397 28.8412 22.9956 28.8029 23.1164L28.5434 23.8541ZM41.6886 21.5933C41.6886 22.2458 41.5699 22.7596 41.3361 23.1229C41.1049 23.4824 40.7551 23.6574 40.2675 23.6574C39.7788 23.6574 39.4308 23.4833 39.2033 23.1229C38.9731 22.7606 38.8563 22.2458 38.8563 21.5933C38.8563 20.9418 38.9731 20.4288 39.2033 20.0693C39.4308 19.7136 39.7788 19.5404 40.2675 19.5404C40.7552 19.5404 41.105 19.7136 41.337 20.0693C41.57 20.4287 41.6886 20.9417 41.6886 21.5933ZM42.7866 20.3838C42.6788 20.0103 42.5107 19.6808 42.287 19.4066C42.0632 19.1313 41.7801 18.9104 41.4438 18.7494C41.1086 18.5894 40.7123 18.5079 40.2675 18.5079C39.8217 18.5079 39.4253 18.5894 39.09 18.7494C38.7539 18.9104 38.4708 19.1314 38.2461 19.4066C38.0232 19.6818 37.8551 20.0113 37.7464 20.3838C37.6396 20.7554 37.5857 21.1617 37.5857 21.5933C37.5857 22.0249 37.6396 22.432 37.7464 22.8027C37.8551 23.1753 38.0223 23.5048 38.247 23.78C38.4708 24.0552 38.7549 24.2752 39.0901 24.4315C39.4262 24.5878 39.8217 24.6674 40.2675 24.6674C40.7123 24.6674 41.1078 24.5878 41.4439 24.4315C41.7792 24.2752 42.0632 24.0552 42.287 23.78C42.5108 23.5057 42.6788 23.1762 42.7867 22.8027C42.8945 22.4311 42.9483 22.0239 42.9483 21.5933C42.9483 21.1627 42.8944 20.7554 42.7866 20.3838ZM51.8025 23.4831C51.766 23.3736 51.6628 23.4148 51.6628 23.4148C51.503 23.4775 51.333 23.5356 51.1522 23.5646C50.9686 23.5935 50.7667 23.6086 50.5502 23.6086C50.0187 23.6086 49.5967 23.4466 49.2944 23.1265C48.9911 22.8063 48.8212 22.2887 48.823 21.5885C48.8248 20.951 48.9746 20.4717 49.2441 20.1066C49.5118 19.7435 49.9191 19.5571 50.4626 19.5571C50.9157 19.5571 51.2609 19.6105 51.6226 19.7275C51.6226 19.7275 51.7093 19.7658 51.7504 19.6498C51.8463 19.3764 51.9176 19.1808 52.0199 18.8803C52.0491 18.7951 51.9779 18.7586 51.9523 18.7483C51.8098 18.6912 51.4736 18.5986 51.2197 18.5592C50.9822 18.5218 50.7046 18.5021 50.3958 18.5021C49.9345 18.5021 49.5235 18.5827 49.1719 18.7437C48.8211 18.9037 48.5234 19.1246 48.2877 19.3999C48.0521 19.6751 47.873 20.0046 47.7534 20.3771C47.6347 20.7487 47.5744 21.1569 47.5744 21.5885C47.5744 22.5218 47.8201 23.2762 48.3051 23.8286C48.791 24.3827 49.5209 24.6645 50.4727 24.6645C51.0353 24.6645 51.6126 24.5475 52.0273 24.3799C52.0273 24.3799 52.1068 24.3406 52.0721 24.2461L51.8025 23.4831ZM53.7235 20.9682C53.7756 20.606 53.8734 20.3045 54.0241 20.0696C54.2515 19.713 54.5986 19.5173 55.0864 19.5173C55.5742 19.5173 55.8966 19.7139 56.1277 20.0696C56.2811 20.3045 56.3478 20.6191 56.3743 20.9682H53.7235ZM57.4201 20.1716C57.327 19.8112 57.0958 19.447 56.9442 19.2804C56.7049 19.0164 56.4711 18.832 56.2391 18.729C55.9358 18.5961 55.5723 18.5081 55.1741 18.5081C54.7101 18.5081 54.289 18.5877 53.9474 18.7524C53.6049 18.9172 53.3172 19.1419 53.0915 19.4218C52.8658 19.7007 52.696 20.033 52.5882 20.4103C52.4795 20.7857 52.4247 21.1948 52.4247 21.6262C52.4247 22.0653 52.4814 22.4744 52.5937 22.8422C52.707 23.213 52.8878 23.5396 53.1326 23.8101C53.3764 24.0826 53.6907 24.296 54.067 24.4448C54.4406 24.5927 54.8946 24.6695 55.4161 24.6685C56.4894 24.6647 57.0548 24.4195 57.2877 24.2875C57.3288 24.2641 57.3681 24.223 57.3187 24.105L57.0758 23.4076C57.0393 23.3037 56.936 23.342 56.936 23.342C56.6702 23.4431 56.2921 23.6248 55.4106 23.6229C54.8343 23.622 54.4067 23.4479 54.1391 23.1754C53.8642 22.8965 53.7299 22.4864 53.7061 21.908L57.4228 21.9117C57.4228 21.9117 57.5205 21.9099 57.5306 21.8125C57.5343 21.7714 57.6586 21.03 57.4201 20.1716ZM23.9585 20.9682C24.0115 20.606 24.1083 20.3045 24.259 20.0696C24.4864 19.713 24.8336 19.5173 25.3213 19.5173C25.8091 19.5173 26.1315 19.7139 26.3635 20.0696C26.516 20.3045 26.5827 20.6191 26.6092 20.9682H23.9585ZM27.6541 20.1716C27.561 19.8112 27.3308 19.447 27.1792 19.2804C26.9399 19.0164 26.706 18.832 26.4741 18.729C26.1708 18.5961 25.8073 18.5081 25.409 18.5081C24.946 18.5081 24.5239 18.5877 24.1823 18.7524C23.8398 18.9172 23.5521 19.1419 23.3265 19.4218C23.1009 19.7007 22.931 20.033 22.8232 20.4103C22.7154 20.7857 22.6597 21.1948 22.6597 21.6262C22.6597 22.0653 22.7163 22.4744 22.8287 22.8422C22.942 23.213 23.1229 23.5396 23.3676 23.8101C23.6115 24.0826 23.9257 24.296 24.302 24.4448C24.6757 24.5927 25.1296 24.6695 25.6512 24.6685C26.7244 24.6647 27.2898 24.4195 27.5227 24.2875C27.5639 24.2641 27.6031 24.223 27.5538 24.105L27.3118 23.4076C27.2743 23.3037 27.1711 23.342 27.1711 23.342C26.9053 23.4431 26.5281 23.6248 25.6448 23.6229C25.0694 23.622 24.6419 23.4479 24.3743 23.1754C24.0993 22.8965 23.9651 22.4864 23.9413 21.908L27.6579 21.9117C27.6579 21.9117 27.7556 21.9099 27.7657 21.8125C27.7692 21.7714 27.8934 21.03 27.6541 20.1716ZM15.925 23.4623C15.7798 23.3434 15.7597 23.3134 15.7104 23.2367C15.6373 23.1196 15.5999 22.953 15.5999 22.7415C15.5999 22.4063 15.7076 22.1658 15.9314 22.0038C15.9287 22.0048 16.2511 21.7183 17.0092 21.7286C17.5417 21.7361 18.0176 21.8166 18.0176 21.8166V23.5484H18.0185C18.0185 23.5484 17.5463 23.6523 17.0147 23.685C16.2584 23.7319 15.9223 23.4614 15.925 23.4623ZM17.4038 20.786C17.2531 20.7747 17.0576 20.7681 16.8237 20.7681C16.505 20.7681 16.1972 20.8093 15.9085 20.8889C15.6181 20.9684 15.3568 21.093 15.1321 21.2577C14.9078 21.4218 14.7233 21.6367 14.5932 21.8858C14.4617 22.1367 14.395 22.4325 14.395 22.7639C14.395 23.1009 14.4516 23.3939 14.5649 23.6336C14.6782 23.8741 14.8417 24.0744 15.0499 24.229C15.2563 24.3834 15.5112 24.4966 15.8071 24.565C16.0985 24.6333 16.4291 24.6679 16.7909 24.6679C17.1718 24.6679 17.5517 24.6361 17.9198 24.5715C18.2843 24.5078 18.7318 24.4151 18.856 24.3862C18.9431 24.3647 19.0299 24.3419 19.1164 24.3178C19.2087 24.2945 19.2014 24.1933 19.2014 24.1933L19.1995 20.7101C19.1995 19.9462 19.0004 19.3798 18.6085 19.0288C18.2185 18.6788 17.644 18.5017 16.9014 18.5017C16.6228 18.5017 16.1743 18.5411 15.9058 18.5963C15.9058 18.5963 15.0937 18.7574 14.7594 19.0251C14.7594 19.0251 14.6864 19.0719 14.7265 19.1768L14.9896 19.9014C15.0225 19.995 15.1111 19.9631 15.1111 19.9631C15.1111 19.9631 15.1394 19.9519 15.1724 19.9322C15.8876 19.5334 16.7918 19.5456 16.7918 19.5456C17.1938 19.5456 17.5025 19.628 17.7107 19.7918C17.9135 19.9509 18.0167 20.1914 18.0167 20.6988V20.8598C17.697 20.8131 17.4038 20.786 17.4038 20.786ZM47.3802 18.8233C47.4085 18.7372 47.3492 18.696 47.3244 18.6867C47.2615 18.6614 46.9454 18.593 46.7015 18.5771C46.2348 18.5481 45.9755 18.6286 45.7434 18.7353C45.5132 18.842 45.2575 19.0142 45.1149 19.2099V18.7466C45.1149 18.682 45.0702 18.6305 45.0081 18.6305H44.0554C43.9933 18.6305 43.9486 18.6819 43.9486 18.7466V24.4277C43.9486 24.4914 43.9997 24.5438 44.0618 24.5438H45.0382C45.0681 24.5437 45.0968 24.5314 45.1178 24.5096C45.1389 24.4878 45.1506 24.4584 45.1506 24.4277V21.5895C45.1506 21.2085 45.1917 20.8285 45.2739 20.5898C45.3543 20.3538 45.4639 20.1648 45.5991 20.029C45.7352 19.8942 45.8895 19.7997 46.0585 19.7464C46.2311 19.692 46.422 19.6743 46.5572 19.6743C46.7518 19.6743 46.9655 19.7257 46.9655 19.7257C47.0367 19.7341 47.077 19.6892 47.1006 19.6228C47.1646 19.4487 47.3455 18.9272 47.3802 18.8233Z" fill="white"/>
<path d="M38.2159 16.1907C38.0972 16.1533 37.9894 16.128 37.8487 16.1009C37.7062 16.0747 37.5364 16.0615 37.3437 16.0615C36.6713 16.0615 36.1415 16.2562 35.7698 16.64C35.3999 17.022 35.1487 17.6033 35.0226 18.3681L34.9769 18.6255H34.133C34.133 18.6255 34.0307 18.6217 34.0087 18.736L33.8708 19.5289C33.8608 19.6038 33.8928 19.6515 33.9914 19.6515H34.8126L33.9795 24.4181C33.9146 24.8019 33.8397 25.1174 33.7566 25.357C33.6753 25.5929 33.5959 25.7698 33.4972 25.899C33.4022 26.0226 33.3127 26.1143 33.1574 26.1676C33.0295 26.2116 32.8816 26.2322 32.7199 26.2322C32.6303 26.2322 32.5108 26.2172 32.4221 26.1985C32.3344 26.1807 32.2878 26.1611 32.2212 26.132C32.2212 26.132 32.1253 26.0946 32.0869 26.1929C32.0567 26.2743 31.8375 26.8912 31.811 26.9671C31.7855 27.0428 31.822 27.1019 31.8685 27.1196C31.9782 27.1589 32.0594 27.1851 32.2083 27.2216C32.4148 27.2713 32.5892 27.2741 32.7527 27.2741C33.0943 27.2741 33.4067 27.2245 33.6652 27.129C33.9246 27.0326 34.1511 26.865 34.352 26.6385C34.5685 26.3932 34.7046 26.1367 34.8344 25.7857C34.9632 25.4393 35.0737 25.0087 35.1614 24.507L35.999 19.6515H37.2229C37.2229 19.6515 37.3261 19.6552 37.3472 19.5401L37.486 18.7482C37.4951 18.6724 37.4641 18.6256 37.3645 18.6256H36.1761C36.1826 18.5985 36.2364 18.1696 36.3725 17.7663C36.431 17.595 36.5406 17.4555 36.6329 17.36C36.7243 17.2664 36.8293 17.1999 36.9444 17.1615C37.0622 17.1222 37.1966 17.1035 37.3436 17.1035C37.455 17.1035 37.5655 17.1166 37.6486 17.1343C37.7637 17.1597 37.8084 17.1727 37.8387 17.1822C37.9602 17.2196 37.9765 17.1831 38.0003 17.1232L38.2844 16.3238C38.3136 16.2375 38.2415 16.201 38.2159 16.1907ZM21.6125 24.4284C21.6125 24.4921 21.5677 24.5436 21.5056 24.5436H20.52C20.4579 24.5436 20.4141 24.4921 20.4141 24.4284V16.2993C20.4141 16.2357 20.4579 16.1842 20.52 16.1842H21.5056C21.5677 16.1842 21.6125 16.2357 21.6125 16.2993V24.4284Z" fill="white"/>
</g>
<defs>
<clipPath id="clip0_1078_3587">
<rect width="64.1212" height="46" fill="white"/>
</clipPath>
</defs>
</svg>
